<svg xmlns="http://www.w3.org/2000/svg" xmlns:xlink="http://www.w3.org/1999/xlink" viewBox="0 0 730.6 147.39"><defs><style>.cls-1{fill:#fff;}.cls-1,.cls-3{fill-rule:evenodd;}.cls-2{fill:#010101;}.cls-4{mask:url(#mask);}</style><mask id="mask" x="0" y="65.38" width="78.68" height="78.72" maskUnits="userSpaceOnUse"><g id="mask-2"><polygon id="path-1" class="cls-1" points="0 65.38 78.68 65.38 78.68 144.11 0 144.11 0 65.38"/></g></mask></defs><g id="LOGO"><path class="cls-2" d="M468.72,2.17h6.8a12.58,12.58,0,0,1,3.23.39,7.41,7.41,0,0,1,2.67,1.24A6.09,6.09,0,0,1,483.23,6a7.08,7.08,0,0,1,.67,3.2v.15a7.29,7.29,0,0,1-.67,3.25,6,6,0,0,1-1.81,2.2,7.3,7.3,0,0,1-2.7,1.24,13.52,13.52,0,0,1-3.23.38H471.6v9.72h-2.88Zm7,11.9a5.6,5.6,0,0,0,3.92-1.23A4.53,4.53,0,0,0,481,9.34V9.21a4.25,4.25,0,0,0-1.4-3.61,6.35,6.35,0,0,0-3.86-1h-4.09v9.55Z"/><path class="cls-2" d="M491.77,26.43a8.76,8.76,0,0,1-2.28-.3,5.36,5.36,0,0,1-1.86-.94,4.36,4.36,0,0,1-1.24-1.61,5.41,5.41,0,0,1-.45-2.31,4.28,4.28,0,0,1,.74-2.55,5.39,5.39,0,0,1,2-1.67,9.56,9.56,0,0,1,2.81-.92,18.47,18.47,0,0,1,3.23-.29h2.51V14.58a4.26,4.26,0,0,0-.87-3,3.82,3.82,0,0,0-2.88-.92c-2.41,0-3.75,1-4,3.12h-2.76a6,6,0,0,1,.75-2.55,5.21,5.21,0,0,1,1.58-1.69,6.41,6.41,0,0,1,2.14-.94,10.74,10.74,0,0,1,2.46-.29,10.32,10.32,0,0,1,2.41.29,5,5,0,0,1,2.05,1,5.13,5.13,0,0,1,1.4,1.92,7.49,7.49,0,0,1,.54,3V26.13h-2.78V23.92A6.64,6.64,0,0,1,495,25.79,7,7,0,0,1,491.77,26.43Zm.27-2.21a7.17,7.17,0,0,0,2.06-.29,5.05,5.05,0,0,0,1.64-.82A3.78,3.78,0,0,0,497.23,20V17.82h-2.41a16.46,16.46,0,0,0-2.43.18,6.92,6.92,0,0,0-1.94.59,3.29,3.29,0,0,0-1.28,1.06,2.82,2.82,0,0,0-.45,1.62,3,3,0,0,0,.74,2.16A3.42,3.42,0,0,0,492,24.22Z"/><path class="cls-2" d="M505,8.61h2.78v3.15a6.92,6.92,0,0,1,.92-1.36,5.23,5.23,0,0,1,1.19-1.06,5.6,5.6,0,0,1,1.57-.72,8.65,8.65,0,0,1,2.08-.31v2.62a12,12,0,0,0-2.38.33,4.51,4.51,0,0,0-1.83.91,4.08,4.08,0,0,0-1.15,1.69,7.54,7.54,0,0,0-.4,2.66v9.62H505Z"/><path class="cls-2" d="M522.72,26.34a4.58,4.58,0,0,1-3.57-1.27A4.78,4.78,0,0,1,518,21.72V11h-2.52V8.61H518v-4h2.72v4h4.08V11h-4.08V21.47c0,1.7.72,2.55,2.18,2.55a6.6,6.6,0,0,0,1.17-.1,8.68,8.68,0,0,0,1-.27V26a5.68,5.68,0,0,1-1,.27A7.65,7.65,0,0,1,522.72,26.34Z"/><path class="cls-2" d="M544.13,26.43a8.69,8.69,0,0,1-3.45-.67A8.15,8.15,0,0,1,538,23.9a8.63,8.63,0,0,1-1.78-2.83,9.78,9.78,0,0,1-.64-3.55v-.27a9.72,9.72,0,0,1,.66-3.62A8.66,8.66,0,0,1,538,10.8,7.76,7.76,0,0,1,540.72,9a9.32,9.32,0,0,1,6.89,0,7.88,7.88,0,0,1,2.73,1.82,8.36,8.36,0,0,1,1.79,2.82,9.51,9.51,0,0,1,.65,3.62v.26a9.65,9.65,0,0,1-.65,3.64,8.1,8.1,0,0,1-4.54,4.66A9.13,9.13,0,0,1,544.13,26.43Zm0-2.35a5.87,5.87,0,0,0,2.38-.46,4.9,4.9,0,0,0,1.81-1.34,6.13,6.13,0,0,0,1.14-2.08,8.42,8.42,0,0,0,.4-2.68v-.24a8.68,8.68,0,0,0-.4-2.73,6.08,6.08,0,0,0-1.15-2.1,5.28,5.28,0,0,0-1.81-1.33,6.18,6.18,0,0,0-4.74,0A4.76,4.76,0,0,0,540,12.45a6.13,6.13,0,0,0-1.14,2.08,8.66,8.66,0,0,0-.4,2.72v.27A7.13,7.13,0,0,0,540,22.34a5.23,5.23,0,0,0,4.2,1.74Z"/><path class="cls-2" d="M557.26,11h-2.54V8.61h2.51V5.76a6.08,6.08,0,0,1,1.31-4.16A5,5,0,0,1,562.46.13a5.2,5.2,0,0,1,1.11.09,8.6,8.6,0,0,1,1,.25V2.84a3.8,3.8,0,0,0-.89-.26,5.67,5.67,0,0,0-1.09-.1,2.2,2.2,0,0,0-2,.83A3.68,3.68,0,0,0,560,5.47V8.61h4.29V11H560V26.13h-2.78Z"/><path class="cls-2" d="M581.62,2.17h7.1l7.77,24h-5.66l-1.64-5.33h-8.68l-1.64,5.33h-5.15Zm0,14.78H588L584.81,6.6Z"/><path class="cls-2" d="M605.47,26.5a10.61,10.61,0,0,1-3.57-.59,7.78,7.78,0,0,1-4.75-4.52,9.93,9.93,0,0,1-.69-3.81v-.24a9.94,9.94,0,0,1,.7-3.81A8.27,8.27,0,0,1,602,8.84a9.86,9.86,0,0,1,3.52-.62,12.06,12.06,0,0,1,2.93.36A7.5,7.5,0,0,1,611,9.73a6.43,6.43,0,0,1,1.84,2.11,7.76,7.76,0,0,1,.91,3.19h-4.59A3.5,3.5,0,0,0,608,12.78a3.73,3.73,0,0,0-2.43-.74,3.77,3.77,0,0,0-3,1.36,5.78,5.78,0,0,0-1.14,3.85v.27a6.08,6.08,0,0,0,1.12,4,3.9,3.9,0,0,0,3.13,1.29,4,4,0,0,0,2.53-.83,3.47,3.47,0,0,0,1.22-2.52h4.39a7.72,7.72,0,0,1-.71,2.87,6.4,6.4,0,0,1-1.67,2.19A7.76,7.76,0,0,1,608.9,26,10.54,10.54,0,0,1,605.47,26.5Z"/><path class="cls-2" d="M623.56,26.5a10.51,10.51,0,0,1-3.56-.59,7.75,7.75,0,0,1-4.76-4.52,9.93,9.93,0,0,1-.69-3.81v-.24a9.77,9.77,0,0,1,.71-3.81,8.46,8.46,0,0,1,1.94-2.89,8.64,8.64,0,0,1,2.88-1.8,9.86,9.86,0,0,1,3.52-.62,12.06,12.06,0,0,1,2.93.36,7.5,7.5,0,0,1,2.56,1.15,6.43,6.43,0,0,1,1.84,2.11,7.72,7.72,0,0,1,.91,3.19h-4.59a3.5,3.5,0,0,0-1.12-2.25A3.73,3.73,0,0,0,623.7,12a3.78,3.78,0,0,0-3.05,1.3,5.78,5.78,0,0,0-1.14,3.85v.27a6.08,6.08,0,0,0,1.12,4,3.91,3.91,0,0,0,3.17,1.33,4,4,0,0,0,2.53-.83,3.47,3.47,0,0,0,1.22-2.52h4.39a7.91,7.91,0,0,1-.7,2.87,6.55,6.55,0,0,1-1.68,2.19A7.59,7.59,0,0,1,627,26,10.46,10.46,0,0,1,623.56,26.5Z"/><path class="cls-2" d="M641.79,26.5a10.33,10.33,0,0,1-3.65-.61,8.26,8.26,0,0,1-4.81-4.55,9.65,9.65,0,0,1-.69-3.76v-.24a9.63,9.63,0,0,1,.69-3.75,8.35,8.35,0,0,1,4.77-4.71,9.4,9.4,0,0,1,3.55-.66,10.28,10.28,0,0,1,3.25.52,7.38,7.38,0,0,1,4.59,4.36,10.3,10.3,0,0,1,.71,4v1.34H637.57a5.11,5.11,0,0,0,1.22,3.4A4.1,4.1,0,0,0,641.92,23a4.16,4.16,0,0,0,2.57-.67,2.9,2.9,0,0,0,1.08-1.78h4.59A6.23,6.23,0,0,1,647.57,25,9.77,9.77,0,0,1,641.79,26.5Zm3.68-11a4.42,4.42,0,0,0-1.1-3,4.17,4.17,0,0,0-5.41.07,4.76,4.76,0,0,0-1.33,2.89Z"/><path class="cls-2" d="M652.11,8.61H657v2.78A6,6,0,0,1,659,9.14a6.5,6.5,0,0,1,3.62-.94,6.66,6.66,0,0,1,2.38.41,5.17,5.17,0,0,1,1.88,1.2,6,6,0,0,1,1.2,2.13,9.24,9.24,0,0,1,.44,3V26.13h-4.84V15.68A4,4,0,0,0,663,13a2.91,2.91,0,0,0-2.34-.85,3.44,3.44,0,0,0-3.67,3.2,3.56,3.56,0,0,0,0,.65V26.13h-4.86Z"/><path class="cls-2" d="M677.84,26.46a5.84,5.84,0,0,1-4.22-1.39,5.42,5.42,0,0,1-1.45-4.13V12.06h-2.24V8.61h2.24V4.82H677V8.61h3.72v3.45H677V20.5a2.21,2.21,0,0,0,.49,1.56,1.89,1.89,0,0,0,1.45.52,5.55,5.55,0,0,0,1-.09,4.44,4.44,0,0,0,.86-.25V26a10.75,10.75,0,0,1-1.24.32A8.66,8.66,0,0,1,677.84,26.46Z"/><path class="cls-2" d="M688.62,26.5a7,7,0,0,1-2.36-.39,4.94,4.94,0,0,1-1.89-1.19,5.41,5.41,0,0,1-1.26-2.06,8.74,8.74,0,0,1-.45-3V8.61h4.83V19.23a3.87,3.87,0,0,0,.77,2.63,2.85,2.85,0,0,0,2.27.88,3.48,3.48,0,0,0,3.68-3.25,4,4,0,0,0,0-.6V8.61H699V26.13h-4.82V23.34a5.74,5.74,0,0,1-2,2.23A6.39,6.39,0,0,1,688.62,26.5Z"/><path class="cls-2" d="M702,8.61h4.86V12a6.41,6.41,0,0,1,2.18-2.68,6.19,6.19,0,0,1,3.48-.94v4.52a7.22,7.22,0,0,0-4.18,1,4,4,0,0,0-1.48,3.48v8.78H702Z"/><path class="cls-2" d="M722.19,26.5a10.56,10.56,0,0,1-3.65-.61,8.28,8.28,0,0,1-4.82-4.55,9.86,9.86,0,0,1-.68-3.76v-.24a9.81,9.81,0,0,1,.68-3.75,8.33,8.33,0,0,1,4.78-4.71,9.4,9.4,0,0,1,3.55-.66,10.28,10.28,0,0,1,3.25.52,7.42,7.42,0,0,1,2.72,1.6,7.71,7.71,0,0,1,1.88,2.76,10.48,10.48,0,0,1,.7,4v1.34H718a5.22,5.22,0,0,0,1.22,3.4,4.93,4.93,0,0,0,5.7.52A3,3,0,0,0,726,20.58h4.59A6.24,6.24,0,0,1,728,25,9.77,9.77,0,0,1,722.19,26.5Zm3.69-11a4.43,4.43,0,0,0-1.11-3,4.19,4.19,0,0,0-5.41.07A4.86,4.86,0,0,0,718,15.46Z"/><polygon class="cls-2" points="391.21 0.88 382.45 13.62 391.21 26.37 397.89 26.37 388.72 13.62 397.89 0.88 391.21 0.88"/><rect class="cls-2" x="374.12" y="0.88" width="5.78" height="25.48"/><path class="cls-2" d="M356.91,9.34V9.26a8,8,0,0,0-2.14-5.77c-1.66-1.68-4.19-2.56-7.31-2.56H335.57V26.34h5.72V5.64H347c2.92,0,4.6,1.41,4.6,3.87v.07c0,2.37-1.72,4-4.49,4h-3.27l8.81,12.76h6.72l-7.29-9.74A8.31,8.31,0,0,0,356.91,9.34Z"/><rect class="cls-2" y="0.64" width="5.66" height="25.73"/><polygon class="cls-2" points="56.63 26.39 61.93 26.39 61.93 16.28 74.21 16.28 74.21 10.9 61.93 10.9 61.93 6.02 75.86 6.02 75.86 0.64 56.63 0.64 56.63 26.39"/><rect class="cls-2" x="92.65" y="0.64" width="5.66" height="25.73"/><rect class="cls-2" x="149.19" y="0.64" width="5.66" height="25.73"/><polygon class="cls-2" points="171.79 6.05 179.44 6.05 179.44 26.37 185.1 26.37 185.1 6.05 192.74 6.05 192.74 0.64 171.79 0.64 171.79 6.05"/><polygon class="cls-2" points="219.27 10.97 213.13 0.64 206.52 0.64 216.41 16.23 216.41 26.37 222.07 26.37 222.07 16.12 231.95 0.64 225.52 0.64 219.27 10.97"/><polygon class="cls-2" points="271.8 18.93 271.74 18.75 265.84 0.87 261.35 0.87 255.39 18.93 255.33 18.74 249.89 0.95 244.35 0.95 252.97 26.37 257.54 26.37 263.52 9.03 269.5 26.37 274.08 26.37 282.7 0.95 277.3 0.95 271.8 18.93"/><path class="cls-2" d="M306.55.13a13.38,13.38,0,0,0-13.72,13v.36c0,7.55,5.87,13.24,13.65,13.24a13.38,13.38,0,0,0,13.72-13v-.37C320.2,5.82,314.34.13,306.55.13Zm8.11,13.38a8.07,8.07,0,0,1-7.74,8.4h-.37a8.25,8.25,0,0,1-8.18-8.32v-.26A8.07,8.07,0,0,1,306.12,5h.36a8.25,8.25,0,0,1,8.18,8.32v.25Z"/><polygon class="cls-2" points="20.86 0 20.86 7.62 42.75 27.02 42.75 19.4 20.86 0"/><path class="cls-2" d="M422,.13Z"/><path class="cls-2" d="M422.21,22Z"/><path class="cls-2" d="M422,.13Z"/><polygon class="cls-2" points="112.81 0 112.81 7.62 134.69 27.02 134.69 19.4 112.81 0"/><path class="cls-2" d="M423.16,26.75c5.8,0,9.39-2.76,9.39-7.66V19c0-4.64-3.37-6.34-8.13-7.82-4.19-1.12-5.76-1.92-5.76-3.8V7.34c0-1.47,1.33-2.43,3.39-2.47a29.66,29.66,0,0,1,8.36,1.36V1.49A29.54,29.54,0,0,0,422.18.13c-5.3.07-8.85,2.84-8.85,7.43v.08c.32,4.76,3.85,6.32,8.74,7.81,4.23,1.09,5.3,2,5.3,3.69v.08c0,1.64-1.66,2.78-4.09,2.78h-1.06a29.54,29.54,0,0,1-8.29-1.37v4.71a29.1,29.1,0,0,0,8.43,1.37Z"/></g><g id="Acc"><g id="Logo-1-white"><path id="Fill-3" class="cls-3" d="M108.19,106.38a40.43,40.43,0,0,1,41.49-41,51.75,51.75,0,0,1,20.79,4.33V87a39.75,39.75,0,0,0-19.81-5.43c-7.33,0-13.35,2.39-17.95,7.16a24.44,24.44,0,0,0-6.89,17.68,24.42,24.42,0,0,0,6.89,17.68c4.6,4.77,10.62,7.16,17.95,7.16a39.74,39.74,0,0,0,19.81-5.42V143a51.76,51.76,0,0,1-20.79,4.34c-23.86.32-41.93-18.65-41.49-41"/><path id="Fill-5" class="cls-3" d="M351.56,65.39c23.8-.44,41.38,13.45,41.38,39.35s-17.58,39.79-41.38,39.36H324.09V65.39Zm-10.34,14.1V130h10.34c16.13,0,24.25-8.42,24.25-25.26s-8.12-25.25-24.25-25.25Z"/><polygon id="Fill-7" class="cls-3" points="488.01 65.38 488.01 80.14 451.84 80.14 451.84 97.2 484.1 97.2 484.1 111.96 451.84 111.96 451.84 129.35 488.01 129.35 488.01 144.1 435.56 144.1 435.56 65.38 488.01 65.38"/><polygon id="Fill-9" class="cls-3" points="603.11 65.38 619.14 65.38 619.14 144.1 602.34 144.1 602.34 97.04 602.12 97.04 576.91 139.19 576.25 139.19 551.04 97.04 550.82 97.04 550.82 144.1 533.9 144.1 533.9 65.38 550.05 65.38 576.58 112.33 603.11 65.38"/><polygon id="Fill-11" class="cls-3" points="712.95 65.38 730.6 65.38 702.88 116.22 702.88 144.1 686.2 144.1 686.2 116.22 658.48 65.38 676.13 65.38 694.54 101.13 712.95 65.38"/><polygon id="Fill-13" class="cls-3" points="258.48 117.47 248.81 96.19 239.25 117.47 232.94 131.49 227.29 144.11 209.47 144.11 248.7 65.38 248.92 65.38 288.15 144.11 270.43 144.11 264.78 131.49 258.48 117.47"/><g id="Group-17"><g class="cls-4"><polygon id="Fill-15" class="cls-3" points="49.01 117.47 39.34 96.19 29.78 117.47 23.47 131.48 17.82 144.11 0 144.11 39.23 65.38 39.45 65.38 78.68 144.11 60.97 144.11 55.31 131.48 49.01 117.47"/></g></g></g></g></svg>